<svg xmlns="http://www.w3.org/2000/svg" xmlns:osb="http://www.openswatchbook.org/uri/2009/osb" xmlns:svg="http://www.w3.org/2000/svg" xmlns:xlink="http://www.w3.org/1999/xlink" id="svg2" width="25" height="25" version="1.1"><defs id="defs4"><linearGradient id="linearGradient5350"><stop style="stop-color:#5a5a5a;stop-opacity:1" id="stop5352" offset="0"/><stop style="stop-color:#7b7b7b;stop-opacity:1" id="stop5354" offset="1"/></linearGradient><linearGradient id="linearGradient5342"><stop style="stop-color:#af241a;stop-opacity:1" id="stop5344" offset="0"/><stop style="stop-color:#e64d42;stop-opacity:1" id="stop5346" offset="1"/></linearGradient><linearGradient id="linearGradient5334"><stop style="stop-color:#197020;stop-opacity:1" id="stop5336" offset="0"/><stop style="stop-color:#2cb637;stop-opacity:1" id="stop5338" offset="1"/></linearGradient><linearGradient id="linearGradient5299" osb:paint="solid"><stop style="stop-color:#000;stop-opacity:1" id="stop5301" offset="0"/></linearGradient><linearGradient id="linearGradient5279"><stop style="stop-color:#690;stop-opacity:1" id="stop5281" offset="0"/><stop style="stop-color:#9c3;stop-opacity:1" id="stop5283" offset="1"/></linearGradient><linearGradient id="linearGradient3827" osb:paint="gradient"><stop style="stop-color:#000;stop-opacity:1" id="stop3829" offset="0"/><stop style="stop-color:#000;stop-opacity:0" id="stop3831" offset="1"/></linearGradient><linearGradient id="linearGradient5311" x1="38.278" x2="38.278" y1="85.599" y2="-1.247" gradientUnits="userSpaceOnUse" spreadMethod="pad" xlink:href="#linearGradient5279"/><linearGradient id="linearGradient5340" x1="322.329" x2="322.329" y1="552.067" y2="481.173" gradientUnits="userSpaceOnUse" xlink:href="#linearGradient5334"/><linearGradient id="linearGradient5348" x1="324.913" x2="324.913" y1="579.233" y2="558.327" gradientUnits="userSpaceOnUse" xlink:href="#linearGradient5342"/><linearGradient id="linearGradient5356" x1="320.95" x2="320.95" y1="680.448" y2="588.684" gradientUnits="userSpaceOnUse" xlink:href="#linearGradient5350"/><linearGradient id="linearGradient5311-6" x1="38.278" x2="38.278" y1="85.599" y2="-1.247" gradientUnits="userSpaceOnUse" spreadMethod="pad" xlink:href="#linearGradient5279-6"/><linearGradient id="linearGradient5279-6"><stop style="stop-color:#690;stop-opacity:1" id="stop5281-1" offset="0"/><stop style="stop-color:#9c3;stop-opacity:1" id="stop5283-9" offset="1"/></linearGradient><linearGradient id="linearGradient5372" x1="38.278" x2="38.278" y1="85.599" y2="-1.247" gradientUnits="userSpaceOnUse" spreadMethod="pad" xlink:href="#linearGradient5279-6"/><linearGradient id="linearGradient5374"><stop style="stop-color:#690;stop-opacity:1" id="stop5376" offset="0"/><stop style="stop-color:#9c3;stop-opacity:1" id="stop5378" offset="1"/></linearGradient><linearGradient id="linearGradient5380" x1="38.278" x2="38.278" y1="85.599" y2="-1.247" gradientUnits="userSpaceOnUse" spreadMethod="pad" xlink:href="#linearGradient5279-6"/><linearGradient id="linearGradient5382"><stop style="stop-color:#690;stop-opacity:1" id="stop5384" offset="0"/><stop style="stop-color:#9c3;stop-opacity:1" id="stop5386" offset="1"/></linearGradient><linearGradient id="linearGradient5388" x1="38.278" x2="38.278" y1="85.599" y2="-1.247" gradientUnits="userSpaceOnUse" spreadMethod="pad" xlink:href="#linearGradient5279-6"/><linearGradient id="linearGradient5390"><stop style="stop-color:#690;stop-opacity:1" id="stop5392" offset="0"/><stop style="stop-color:#9c3;stop-opacity:1" id="stop5394" offset="1"/></linearGradient><linearGradient id="linearGradient5396" x1="38.278" x2="38.278" y1="85.599" y2="-1.247" gradientUnits="userSpaceOnUse" spreadMethod="pad" xlink:href="#linearGradient5279-6"/><linearGradient id="linearGradient5398"><stop style="stop-color:#690;stop-opacity:1" id="stop5400" offset="0"/><stop style="stop-color:#9c3;stop-opacity:1" id="stop5402" offset="1"/></linearGradient><filter id="filter5484" color-interpolation-filters="sRGB"><feGaussianBlur id="feGaussianBlur5486" stdDeviation="1.206"/></filter><linearGradient id="linearGradient5495" x1="320.95" x2="320.95" y1="680.448" y2="588.684" gradientUnits="userSpaceOnUse" xlink:href="#linearGradient5350"/><linearGradient id="linearGradient5497" x1="324.913" x2="324.913" y1="579.233" y2="558.327" gradientUnits="userSpaceOnUse" xlink:href="#linearGradient5342"/><linearGradient id="linearGradient5499" x1="322.329" x2="322.329" y1="552.067" y2="481.173" gradientUnits="userSpaceOnUse" xlink:href="#linearGradient5334"/><linearGradient id="linearGradient5501" x1="38.278" x2="38.278" y1="85.599" y2="-1.247" gradientUnits="userSpaceOnUse" spreadMethod="pad" xlink:href="#linearGradient5279"/><linearGradient id="linearGradient5503" x1="38.278" x2="38.278" y1="85.599" y2="-1.247" gradientUnits="userSpaceOnUse" spreadMethod="pad" xlink:href="#linearGradient5279"/><linearGradient id="linearGradient5505" x1="38.278" x2="38.278" y1="85.599" y2="-1.247" gradientUnits="userSpaceOnUse" spreadMethod="pad" xlink:href="#linearGradient5279"/><linearGradient id="linearGradient5507" x1="38.278" x2="38.278" y1="85.599" y2="-1.247" gradientUnits="userSpaceOnUse" spreadMethod="pad" xlink:href="#linearGradient5279"/><linearGradient id="linearGradient3049" x1="322.329" x2="322.329" y1="552.067" y2="481.173" gradientTransform="matrix(0.13131,0,0,0.13131,280.5835,479.1446)" gradientUnits="userSpaceOnUse" xlink:href="#linearGradient5334"/><linearGradient id="linearGradient3052" x1="324.913" x2="324.913" y1="579.233" y2="558.327" gradientTransform="matrix(0.13131,0,0,0.13131,280.5835,479.1446)" gradientUnits="userSpaceOnUse" xlink:href="#linearGradient5342"/><linearGradient id="linearGradient3055" x1="320.95" x2="320.95" y1="680.448" y2="588.684" gradientTransform="matrix(0.13131,0,0,0.13131,280.5835,479.1446)" gradientUnits="userSpaceOnUse" xlink:href="#linearGradient5350"/></defs><metadata id="metadata7"/><g id="layer1" transform="translate(-286.9961,-562.26914)"><rect style="opacity:0;fill:none;stroke:#000;stroke-width:.12834224;stroke-opacity:1" id="rect5488" width="71.872" height="71.872" x="287.06" y="515.333" rx=".722" ry=".722"/><path style="fill:none;stroke:none" id="path1919" d="m 316.62758,554.64567 c 0,-4.11437 0,-8.22876 0,-12.34314 4.24569,0 8.49138,0 12.73707,0 0,8.22877 0,16.45752 0,24.68628 -4.24569,0 -8.49138,0 -12.73707,0 0,-4.11437 0,-8.22876 0,-12.34314 z"/><path id="path1917" style="fill:#888;fill-opacity:1;stroke:none" d="m 298.96439,574.77149 0,-1.07163 -1.75061,0 0,-0.93256 1.75061,0 0,-1.20252 1.04708,0 0,1.20252 1.74242,0 0,0.93256 -1.74242,0 -0.0173,1.0694 -1.02982,0.002 z m -1.72101,1.35312 -0.005,-1.00136 4.51557,0 -3.7e-4,1.00618 -4.51,-0.005 z m 1.72091,4.45097 c -0.77399,-0.0997 -1.57056,-0.83155 -1.68185,-1.69012 -0.10674,-0.71779 0.0472,-1.55563 0.6406,-2.02933 0.26024,-0.17739 0.61425,-0.37613 0.92643,-0.35248 0.009,0.31778 -0.009,0.70402 0,1.02179 -0.37183,0.0414 -0.73176,0.46404 -0.72427,0.85101 0.009,0.50359 0.23199,0.96628 0.71648,1.117 0.53591,0.18031 1.14938,0.12903 1.64547,-0.17076 0.40982,-0.31932 0.44774,-0.91384 0.23339,-1.36627 -0.0964,-0.24897 -0.30426,-0.43174 -0.58636,-0.43098 l 0,0.88632 -0.79544,0 0,-1.90811 2.40879,0 0,0.68617 -0.65978,0.006 c 0.61569,0.35098 0.67879,1.10848 0.64724,1.63399 0.0222,0.90276 -0.8697,1.63881 -1.7543,1.73723 -0.32003,0.024 -0.59082,0.0252 -1.0164,0.008 z m 8.68258,-9.66704 c 0.72638,0 1.31114,0.64516 1.31114,1.44654 l 0,5.47627 c 0,0.80138 -0.58476,1.44655 -1.31114,1.44655 -0.72637,0 -1.31114,-0.64517 -1.31114,-1.44655 l 0,-5.47627 c 0,-0.80138 0.58477,-1.44654 1.31114,-1.44654 z m -16.30153,0 c 0.72638,0 1.31115,0.64516 1.31115,1.44654 l 0,5.47627 c 0,0.80138 -0.58477,1.44655 -1.31115,1.44655 -0.72637,0 -1.31115,-0.64517 -1.31115,-1.44655 l 0,-5.47627 c 0,-0.80138 0.58477,-1.44654 1.31115,-1.44654 z m 2.01834,0.19313 0,9.23033 c 0,0.45793 0.5535,1.05735 1.01142,1.05735 h 1.4477 v 3.14691 c 0,0.80136 0.58352,1.44653 1.30993,1.44653 0.72638,0 1.30994,-0.64517 1.30994,-1.44653 v -3.14691 h 2.10551 v 3.14691 c 0,0.80136 0.58352,1.44653 1.30993,1.44653 0.72639,0 1.31795,-0.64517 1.31795,-1.44653 v -3.14691 h 1.43966 c 0.45792,0 1.01142,-0.59942 1.01142,-1.05735 v -9.23033 h -12.26357 z m 2.19463,-7.3784 1.04459,1.81625 c -1.90146,0.93271 -3.19035,2.75885 -3.19035,4.85395 h 6.08343 6.08344 c 0,-2.09505 -1.2889,-3.92122 -3.19036,-4.85395 l 1.04484,-1.81623 c 0,0 0.0494,-0.0965 -0.0443,-0.15061 -0.0939,-0.0541 -0.15688,0.0382 -0.15688,0.0382 l -1.06079,1.83223 c -0.80775,-0.35949 -1.71581,-0.56254 -2.67604,-0.56254 -0.96027,0 -1.86835,0.20305 -2.67603,0.56254 l -1.06079,-1.83223 c 0,0 -0.0592,-0.0924 -0.15362,-0.0385 -0.0946,0.054 -0.0473,0.15088 -0.0473,0.15088 z m 1.04459,3.51797 c 0.31875,0 0.57861,0.25987 0.57861,0.57863 0,0.31874 -0.25986,0.57059 -0.57861,0.57059 -0.31875,0 -0.57861,-0.25184 -0.57861,-0.57059 0,-0.31877 0.25986,-0.57863 0.57861,-0.57863 z m 5.78616,0 c 0.31875,0 0.57862,0.25987 0.57862,0.57863 -10e-6,0.31874 -0.25987,0.57059 -0.57862,0.57059 -0.31876,0 -0.57862,-0.25184 -0.57862,-0.57059 0,-0.31877 0.25986,-0.57863 0.57862,-0.57863 z"/></g></svg>